<mxfile host="drawio-plugin" modified="2021-03-18T04:38:22.257Z" agent="5.0 (Macintosh; Intel Mac OS X 10_16_0) AppleWebKit/537.36 (KHTML, like Gecko) Chrome/84.0.4147.105 Safari/537.36" etag="Oqf_gbM8DZtJZ5Ppri4S" version="13.7.9" type="embed"><diagram id="0blczrsi-l7uzIwCsz-E" name="Page-1"><mxGraphModel dx="904" dy="605" grid="1" gridSize="10" guides="1" tooltips="1" connect="1" arrows="1" fold="1" page="1" pageScale="1" pageWidth="850" pageHeight="1100" math="0" shadow="0"><root><mxCell id="0"/><mxCell id="1" parent="0"/><mxCell id="9" value="" style="rounded=0;whiteSpace=wrap;html=1;" parent="1" vertex="1"><mxGeometry x="50" y="70" width="120" height="200" as="geometry"/></mxCell><mxCell id="10" value="" style="rounded=0;whiteSpace=wrap;html=1;" parent="1" vertex="1"><mxGeometry x="370" y="72" width="120" height="198" as="geometry"/></mxCell><mxCell id="13" value="Backend" style="text;html=1;strokeColor=none;fillColor=none;align=center;verticalAlign=middle;whiteSpace=wrap;rounded=0;" parent="1" vertex="1"><mxGeometry x="410" y="40" width="40" height="20" as="geometry"/></mxCell><mxCell id="14" value="Frontend" style="text;html=1;strokeColor=none;fillColor=none;align=center;verticalAlign=middle;whiteSpace=wrap;rounded=0;" parent="1" vertex="1"><mxGeometry x="90" y="40" width="40" height="20" as="geometry"/></mxCell><mxCell id="18" value="User1 details" style="shape=hexagon;perimeter=hexagonPerimeter2;whiteSpace=wrap;html=1;fixedSize=1;" vertex="1" parent="1"><mxGeometry x="240" y="130" width="60" height="40" as="geometry"/></mxCell><mxCell id="19" value="" style="endArrow=classic;html=1;entryX=-0.033;entryY=0.557;entryDx=0;entryDy=0;entryPerimeter=0;exitX=1.008;exitY=0.56;exitDx=0;exitDy=0;exitPerimeter=0;" edge="1" parent="1" source="9" target="10"><mxGeometry width="50" height="50" relative="1" as="geometry"><mxPoint x="170" y="160" as="sourcePoint"/><mxPoint x="220" y="110" as="targetPoint"/></mxGeometry></mxCell><mxCell id="21" value="Replace User1 details" style="edgeLabel;html=1;align=center;verticalAlign=middle;resizable=0;points=[];" vertex="1" connectable="0" parent="19"><mxGeometry x="0.1528" y="-4" relative="1" as="geometry"><mxPoint as="offset"/></mxGeometry></mxCell></root></mxGraphModel></diagram></mxfile>